<?xml version="1.0" standalone="no"?>
<!DOCTYPE svg PUBLIC "-//W3C//DTD SVG 20010904//EN"
 "http://www.w3.org/TR/2001/REC-SVG-20010904/DTD/svg10.dtd">
<svg version="1.0" xmlns="http://www.w3.org/2000/svg"
 width="1024.000000pt" height="1024.000000pt" viewBox="0 0 1024.000000 1024.000000"
 preserveAspectRatio="xMidYMid meet">

<g transform="translate(0.000000,1024.000000) scale(0.100000,-0.100000)"
fill="#000000" stroke="none">
<path d="M1119 6730 c-443 -56 -684 -381 -666 -900 11 -319 114 -518 352 -680
72 -50 193 -99 415 -170 225 -71 292 -104 354 -170 108 -115 99 -295 -21 -400
-140 -124 -407 -116 -553 16 -66 60 -110 181 -110 306 l0 48 -261 0 -262 0 7
-97 c33 -455 252 -756 621 -855 68 -18 109 -21 270 -22 167 -1 201 2 280 22
143 36 262 99 356 189 173 166 246 343 256 628 5 128 2 165 -16 255 -50 246
-197 429 -441 550 -46 24 -177 73 -291 110 -306 101 -386 147 -436 248 -23 47
-28 70 -28 132 1 89 22 139 84 192 49 42 93 57 187 65 119 10 223 -24 283 -93
47 -53 69 -113 83 -220 l11 -94 244 0 243 0 0 63 c0 75 -22 216 -49 312 -81
290 -271 481 -542 544 -98 23 -275 33 -370 21z"/>
<path d="M7173 6729 c-333 -36 -567 -253 -655 -605 -29 -117 -31 -370 -5 -479
40 -162 101 -279 204 -387 102 -106 225 -173 446 -244 368 -117 445 -155 502
-248 28 -46 30 -57 30 -140 0 -107 -17 -148 -87 -213 -135 -124 -406 -121
-551 6 -66 58 -116 193 -117 314 l0 47 -255 0 -255 0 0 -77 c1 -283 108 -551
282 -708 105 -94 259 -162 427 -186 120 -17 344 -7 446 21 327 87 543 341 595
699 8 52 11 136 7 220 -9 230 -65 376 -200 517 -127 135 -216 183 -547 294
-241 81 -294 104 -357 163 -70 64 -88 106 -88 207 0 96 13 130 74 193 74 78
247 99 383 47 105 -39 164 -140 175 -297 l6 -83 244 0 244 0 -6 78 c-15 188
-55 353 -111 465 -40 78 -129 191 -187 238 -155 123 -402 184 -644 158z"/>
<path d="M9027 6729 c-110 -12 -189 -35 -291 -87 -257 -131 -398 -410 -397
-787 0 -116 4 -157 25 -237 46 -181 145 -332 283 -433 107 -78 193 -116 453
-202 245 -81 297 -105 360 -166 59 -56 80 -106 80 -195 0 -156 -86 -251 -262
-288 -86 -18 -163 -13 -257 18 -51 16 -77 33 -122 77 -71 70 -99 139 -107 264
l-5 87 -257 0 c-141 0 -259 -2 -261 -4 -10 -10 13 -226 33 -310 79 -338 276
-553 583 -638 69 -18 107 -22 265 -22 216 -1 309 17 446 85 156 77 271 194
349 354 74 155 90 231 89 440 0 205 -16 284 -80 412 -107 214 -290 342 -658
463 -352 115 -442 184 -454 351 -12 168 87 274 267 286 238 17 371 -113 371
-360 l0 -47 251 0 251 0 -7 78 c-38 457 -229 737 -565 830 -64 18 -258 45
-294 41 -6 -1 -46 -5 -89 -10z"/>
<path d="M3200 6715 c-380 -78 -659 -393 -784 -888 -56 -219 -71 -342 -70
-597 0 -241 12 -348 60 -545 98 -398 279 -670 529 -795 107 -53 178 -71 312
-77 272 -13 484 99 597 315 l45 87 1 -125 c0 -69 3 -149 6 -177 l7 -53 168 0
169 0 0 788 0 787 -435 0 -435 0 0 -252 0 -253 210 0 210 0 0 -59 c0 -142 -56
-309 -134 -398 -24 -27 -65 -56 -114 -80 -73 -37 -80 -38 -182 -38 -99 0 -110
2 -171 32 -151 75 -250 245 -295 507 -8 50 -18 174 -21 276 -9 310 32 562 121
744 59 119 118 186 204 228 61 30 74 33 162 33 84 0 101 -3 145 -27 123 -65
199 -194 229 -386 l12 -77 243 -3 244 -2 -7 77 c-34 398 -169 675 -410 842
-154 107 -418 156 -616 116z"/>
<path d="M4490 5273 l0 -1413 260 0 260 0 0 580 0 580 370 0 370 0 0 -580 0
-580 255 0 255 0 0 1413 0 1412 -255 -3 -255 -3 0 -544 0 -545 -370 0 -370 0
0 545 0 544 -260 3 -260 3 0 -1412z"/>
</g>
</svg>
